<svg xmlns="http://www.w3.org/2000/svg" version="1.1" xmlns:xlink="http://www.w3.org/1999/xlink" xmlns:svgjs="http://svgjs.dev/svgjs" width="1500" height="1500" viewBox="0 0 1500 1500"><rect width="1500" height="1500" fill="#000000"></rect><g transform="matrix(0.6666666666666666,0,0,0.6666666666666666,249.39393939393938,673.9070856627962)"><svg viewBox="0 0 396 60" data-background-color="#10b981" preserveAspectRatio="xMidYMid meet" height="227" width="1500" xmlns="http://www.w3.org/2000/svg" xmlns:xlink="http://www.w3.org/1999/xlink"><g id="tight-bounds" transform="matrix(1,0,0,1,0.2400000000000091,0.1689968737812535)"><svg viewBox="0 0 395.52 59.662006252437486" height="59.662006252437486" width="395.52"><g><svg viewBox="0 0 507.0273547051238 76.48227449073103" height="59.662006252437486" width="395.52"><g transform="matrix(1,0,0,1,111.50735470512384,5.6871768764496125)"><svg viewBox="0 0 395.52 65.1079207378318" height="65.1079207378318" width="395.52"><g id="textblocktransform"><svg viewBox="0 0 395.52 65.1079207378318" height="65.1079207378318" width="395.52" id="textblock"><g><svg viewBox="0 0 395.52 65.1079207378318" height="65.1079207378318" width="395.52"><g transform="matrix(1,0,0,1,0,0)"><svg width="395.52" viewBox="1.88 -41.19 285.83345083236696 47.199999999999996" height="65.1079207378318" data-palette-color="#3f3a36"><g transform="matrix(1,0,0,1,0,0)"><g><svg width="18.69563388824463" viewBox="3.16 -36.36 78.76 36.36" height="8.63134765625" data-palette-color="#3f3a36" id="scriptelement" x="269.01781694412233" y="-8.63134765625"><path d="M3.16 0L3.16-36.36 12.64-36.36 22.66-11.93 23.08-11.93 33.1-36.36 42.58-36.36 42.58 0 35.12 0 35.12-23.67 34.82-23.67 25.41-0.18 20.33-0.18 10.92-23.76 10.62-23.76 10.62 0 3.16 0ZM64.29-28.05L55.16 0 46.93 0 59.48-36.36 69.39-36.36 81.92 0 73.68 0 64.57-28.05 64.29-28.05ZM54.65-8.29L54.65-14.29 74.11-14.29 74.11-8.29 54.65-8.29Z" opacity="1" transform="matrix(1,0,0,1,0,0)" fill="#ffffff" class="undefined-123" data-fill-palette-color="primary" id="tk-123"></path></svg></g></g><g class="wordmark-text-0" data-fill-palette-color="primary" id="text-0"><path d="M32.79-10.74L32.79-10.74Q32.79-8.47 32.21-6.74 31.64-5 30.6-3.74 29.57-2.47 28.15-1.61 26.73-0.76 25.06-0.24 23.39 0.27 21.52 0.49 19.65 0.71 17.72 0.71L17.72 0.71Q15.19 0.71 13.04 0.33 10.89-0.05 9-0.87 7.1-1.68 5.36-2.98 3.61-4.27 1.88-6.13L1.88-6.13 6.86-11.18Q7.54-9.5 8.74-8.07 9.94-6.64 11.36-5.62 12.79-4.59 14.33-4 15.87-3.42 17.24-3.42L17.24-3.42Q18.85-3.42 20.26-3.65 21.68-3.88 22.73-4.42 23.78-4.96 24.38-5.85 24.98-6.74 24.98-8.08L24.98-8.08Q24.98-9.11 24.51-9.84 24.05-10.57 23.3-11.1 22.56-11.62 21.61-11.99 20.65-12.35 19.67-12.61 18.68-12.87 17.72-13.07 16.77-13.28 16.04-13.5L16.04-13.5Q14.6-13.92 13.04-14.39 11.47-14.87 9.96-15.48 8.45-16.09 7.09-16.88 5.74-17.68 4.71-18.76 3.69-19.85 3.08-21.28 2.47-22.71 2.47-24.56L2.47-24.56Q2.47-26.78 3.02-28.5 3.56-30.22 4.57-31.49 5.57-32.76 6.93-33.63 8.3-34.5 9.94-35.02 11.57-35.55 13.42-35.78 15.26-36.01 17.19-36.01L17.19-36.01Q19.82-36.01 21.98-35.52 24.15-35.03 25.98-34.13 27.81-33.23 29.33-31.97 30.86-30.71 32.2-29.17L32.2-29.17 27.22-24.12Q26.64-25.88 25.6-27.29 24.56-28.71 23.29-29.72 22.02-30.74 20.63-31.29 19.24-31.84 17.94-31.84L17.94-31.84Q16.26-31.84 14.84-31.6 13.43-31.37 12.41-30.85 11.4-30.32 10.84-29.43 10.28-28.54 10.28-27.22L10.28-27.22Q10.28-26.17 10.69-25.44 11.11-24.71 11.8-24.19 12.5-23.68 13.38-23.35 14.26-23.02 15.2-22.78 16.14-22.53 17.05-22.35 17.97-22.17 18.73-21.95L18.73-21.95Q20.19-21.53 21.8-21.07 23.41-20.61 24.98-19.98 26.54-19.36 27.95-18.55 29.37-17.75 30.44-16.64 31.52-15.53 32.15-14.07 32.79-12.62 32.79-10.74ZM46.53-9.47L46.53 0 38.28 0 38.28-38.57 46.53-38.57 46.53-13.26Q48.56-14.72 50.52-16.48 52.49-18.24 54.27-20.18 56.05-22.12 57.58-24.15 59.1-26.17 60.25-28.2L60.25-28.2 65.87-28.2Q64.16-25.32 61.81-22.45 59.47-19.58 56.71-16.97L56.71-16.97 65.96 0 56.86 0 50.29-11.77Q48.46-10.52 46.53-9.47L46.53-9.47ZM78.9-35.01L78.9-35.01Q78.9-34.08 78.55-33.25 78.19-32.42 77.58-31.81 76.97-31.2 76.14-30.85 75.31-30.49 74.38-30.49L74.38-30.49Q73.46-30.49 72.64-30.85 71.82-31.2 71.21-31.81 70.6-32.42 70.25-33.25 69.89-34.08 69.89-35.01L69.89-35.01Q69.89-35.94 70.25-36.76 70.6-37.57 71.21-38.18 71.82-38.79 72.64-39.15 73.46-39.5 74.38-39.5L74.38-39.5Q75.31-39.5 76.14-39.15 76.97-38.79 77.58-38.18 78.19-37.57 78.55-36.76 78.9-35.94 78.9-35.01ZM78.54-28.17L78.54 0 70.26 0 70.26-28.17 78.54-28.17ZM93.69-32.62L93.69 0 85.44 0 85.44-41.19 88.62-41.19 93.69-32.62ZM108.83-32.62L108.83 0 100.58 0 100.58-41.19 103.75-41.19 108.83-32.62ZM138.05-3.27L138.05 0 114.17 0 114.17-3.27 114.17-3.27 128.94-24.93 114.17-24.93 114.17-28.2 138.05-28.2 138.05-24.93 123.28-3.27 138.05-3.27Z" fill="#ffffff" data-fill-palette-color="primary"></path><path d="M184.48-16.16L184.48-16.16Q184.48-13.31 183.79-10.21 183.09-7.1 181.85-4.13 180.6-1.15 178.87 1.48 177.13 4.1 175.06 6.01L175.06 6.01 171.96 4.32Q172.62 3.1 173.2 1.59 173.79 0.07 174.27-1.62 174.74-3.32 175.12-5.13 175.5-6.93 175.76-8.7 176.01-10.47 176.15-12.15 176.28-13.82 176.28-15.26L176.28-15.26Q176.28-16.21 176.21-17.3 176.13-18.38 175.9-19.47 175.67-20.56 175.28-21.56 174.89-22.56 174.24-23.32 173.59-24.07 172.68-24.54 171.76-25 170.52-25L170.52-25Q169.3-25 168.35-24.45 167.39-23.9 166.66-23.01 165.93-22.12 165.4-20.97 164.88-19.82 164.55-18.62 164.22-17.41 164.07-16.24 163.93-15.06 163.93-14.14L163.93-14.14 163.93 0 155.65 0 155.65-38.57 163.9-38.57 163.9-24.05Q165.49-26.37 167.8-27.62 170.1-28.88 172.91-28.88L172.91-28.88Q175.84-28.88 178.01-27.93 180.19-26.98 181.63-25.28 183.07-23.58 183.78-21.25 184.48-18.92 184.48-16.16ZM198.59-35.01L198.59-35.01Q198.59-34.08 198.24-33.25 197.88-32.42 197.27-31.81 196.66-31.2 195.83-30.85 195-30.49 194.08-30.49L194.08-30.49Q193.15-30.49 192.33-30.85 191.51-31.2 190.9-31.81 190.29-32.42 189.94-33.25 189.58-34.08 189.58-35.01L189.58-35.01Q189.58-35.94 189.94-36.76 190.29-37.57 190.9-38.18 191.51-38.79 192.33-39.15 193.15-39.5 194.08-39.5L194.08-39.5Q195-39.5 195.83-39.15 196.66-38.79 197.27-38.18 197.88-37.57 198.24-36.76 198.59-35.94 198.59-35.01ZM198.23-28.17L198.23 0 189.95 0 189.95-28.17 198.23-28.17ZM229.11-25.71L229.11-25.71 224.47-18.02Q224.18-18.99 223.71-20.21 223.25-21.44 222.56-22.5 221.88-23.56 220.93-24.28 219.98-25 218.73-25L218.73-25Q217.58-25 216.74-24.41 215.9-23.83 215.31-22.89 214.73-21.95 214.35-20.76 213.97-19.58 213.76-18.37 213.56-17.16 213.48-16.05 213.41-14.94 213.41-14.14L213.41-14.14 213.41 0 205.13 0 205.13-28.2 208.31-28.2 211.65-21.63Q212.33-23.22 213.21-24.55 214.09-25.88 215.24-26.84 216.39-27.81 217.84-28.34 219.29-28.88 221.12-28.88L221.12-28.88Q222.08-28.88 223.25-28.72 224.42-28.56 225.54-28.19 226.67-27.81 227.62-27.2 228.57-26.59 229.11-25.71ZM239.33-13.38L239.33-13.38Q240.85-13.04 242.36-12.84 243.87-12.65 245.41-12.65L245.41-12.65Q247.02-12.65 248.4-12.95 249.78-13.26 250.8-13.98 251.81-14.7 252.4-15.89 252.98-17.09 252.98-18.87L252.98-18.87Q252.98-20.31 252.59-21.51 252.2-22.71 251.43-23.56 250.66-24.41 249.54-24.89 248.42-25.37 246.93-25.37L246.93-25.37Q245.54-25.37 244.42-24.85 243.31-24.34 242.47-23.47 241.63-22.61 241.03-21.46 240.43-20.31 240.04-19.07 239.65-17.82 239.48-16.55 239.31-15.28 239.31-14.16L239.31-14.16Q239.31-13.96 239.31-13.77 239.31-13.57 239.33-13.38ZM259.67-18.95L259.67-18.95Q259.67-17.21 259.11-15.86 258.55-14.5 257.58-13.48 256.62-12.45 255.35-11.74 254.08-11.04 252.64-10.58 251.2-10.13 249.67-9.94 248.15-9.74 246.71-9.74L246.71-9.74Q244.88-9.74 243.09-10 241.31-10.25 239.58-10.82L239.58-10.82Q239.85-9.2 240.43-7.75 241.02-6.3 242-5.21 242.97-4.13 244.4-3.49 245.83-2.86 247.78-2.86L247.78-2.86Q249.08-2.86 250.25-3.25 251.42-3.64 252.4-4.35 253.37-5.05 254.12-6.03 254.86-7.01 255.33-8.2L255.33-8.2 258.89-6.88Q258.08-4.96 256.68-3.55 255.28-2.15 253.51-1.23 251.74-0.32 249.75 0.12 247.76 0.56 245.8 0.56L245.8 0.56Q242.58 0.56 239.85-0.52 237.11-1.61 235.13-3.56 233.16-5.52 232.03-8.23 230.91-10.94 230.91-14.16L230.91-14.16Q230.91-17.38 232.03-20.09 233.16-22.8 235.13-24.76 237.11-26.71 239.85-27.8 242.58-28.88 245.8-28.88L245.8-28.88Q247.37-28.88 249-28.66 250.64-28.44 252.18-27.97 253.71-27.49 255.08-26.73 256.45-25.98 257.46-24.87 258.47-23.75 259.07-22.29 259.67-20.83 259.67-18.95Z" fill="#ffffff" data-fill-palette-color="accent"></path></g></svg></g></svg></g></svg></g></svg></g><g><svg viewBox="0 0 96.13693720901946 76.48227449073103" height="76.48227449073103" width="96.13693720901946"><g><svg xmlns="http://www.w3.org/2000/svg" xmlns:xlink="http://www.w3.org/1999/xlink" version="1.1" x="0" y="0" viewBox="5.4 14.5 90 71.6" enable-background="new 0 0 100 100" xml:space="preserve" height="76.48227449073103" width="96.13693720901946" class="icon-icon-0" data-fill-palette-color="accent" id="icon-0"><g fill="#ffffff" data-fill-palette-color="accent"><path d="M44.2 46.4C40.6 50 40.6 55.9 44.2 59.6 47.8 63.2 53.7 63.2 57.4 59.6 61 56 61 50.1 57.4 46.4 53.7 42.8 47.8 42.8 44.2 46.4" fill="#ffffff" data-fill-palette-color="accent"></path><path d="M83.4 26.1H68.9V19C68.9 16.5 66.9 14.5 64.4 14.5H36.4C33.9 14.5 31.9 16.5 31.9 19V26.1H17.4C10.8 26.1 5.4 31.5 5.4 38.1V74.1C5.4 80.7 10.8 86.1 17.4 86.1H83.4C90 86.1 95.4 80.7 95.4 74.1V38.1C95.4 31.5 90 26.1 83.4 26.1M35 20C35 18.8 36 17.7 37.3 17.7H63.7C64.9 17.7 66 18.7 66 20V26.1H35zM68.1 73.3L58.1 63.3C53.2 66.8 46.3 66.3 41.9 61.9 37 57 37 49 41.9 44.1S54.8 39.2 59.7 44.1C64.1 48.5 64.5 55.3 61.1 60.3L71.1 70.3z" fill="#ffffff" data-fill-palette-color="accent"></path></g></svg></g></svg></g></svg></g><defs></defs></svg><rect width="395.52" height="59.662006252437486" fill="none" stroke="none" visibility="hidden"></rect></g></svg></g></svg>